<svg width="64" height="64" viewBox="0 0 64 64" fill="none" xmlns="http://www.w3.org/2000/svg"><path d="M61.546 44.195 44.66 27.185l1.874-9.23c.484.188.998.287 1.517.29h.014a4.318 4.318 0 1 0-4.017-2.87l-9.92 1.21L17.945.32a1.066 1.066 0 0 0-.753-.32c-.28.001-.548.113-.747.31L13.42 3.318a1.067 1.067 0 0 0 0 1.509l1.628 1.65a29.885 29.885 0 0 0 5.04 35.327c.084.081.183.147.291.195-.068.36-.103.726-.105 1.093v12.374h-12.8A5.34 5.34 0 0 0 2.14 60.8v2.133c.001.59.48 1.067 1.068 1.067h49.067c.589 0 1.066-.478 1.066-1.067V60.8a5.34 5.34 0 0 0-5.332-5.333h-12.8v-5.484c2.005.42 4.048.635 6.097.64a29.7 29.7 0 0 0 14.08-3.567l1.637 1.646c.198.202.47.318.753.32.28-.002.548-.113.746-.31l3.026-3.009a1.067 1.067 0 0 0 0-1.508zM46.56 12.466a2.133 2.133 0 1 1 1.503 3.646h-.006a2.133 2.133 0 0 1-1.493-3.646h-.004zm-2.511 7.01-1.198 5.89-2.351-2.364 3.549-3.527zm-1.213-1.805-3.84 3.82-2.97-2.988 6.81-.83zm5.171 39.93a3.2 3.2 0 0 1 3.2 3.2v1.067H4.275V60.8a3.2 3.2 0 0 1 3.2-3.2h40.533zm-14.933-4.267v2.134H22.408v-2.134h10.667zM22.408 51.2v-8.107c0-2.587 2.393-4.693 5.333-4.693 2.942 0 5.335 2.106 5.335 4.693V51.2H22.408zm12.8-3.392v-4.715c0-3.764-3.35-6.826-7.466-6.826a7.6 7.6 0 0 0-6.563 3.572 27.74 27.74 0 0 1-4.558-31.775l37.204 37.417a27.642 27.642 0 0 1-18.618 2.326zm22.578-1.368-1.503-1.51L17.181 5.59 15.673 4.08l1.51-1.505 15.87 15.96c.007 0 .011.013.019.019L59.3 44.936l-1.514 1.504z" fill="#2E2F42"/><path d="M27.751 40.533h-.008a3.2 3.2 0 0 0-.01 6.4h.01a3.2 3.2 0 0 0 .01-6.4zm.748 3.957a1.067 1.067 0 0 1-1.818-.762 1.068 1.068 0 0 1 1.062-1.061 1.067 1.067 0 0 1 .746 1.823h.01z" fill="#4D5AE5"/></svg>