<svg width="64" height="64" viewBox="0 0 64 64" fill="none" xmlns="http://www.w3.org/2000/svg"><path d="M63.948 9.048a1.068 1.068 0 0 0-.86-.725l-3.822-.556-1.71-3.462c-.358-.73-1.554-.73-1.912 0l-1.71 3.462-3.82.556a1.067 1.067 0 0 0-.592 1.819l2.766 2.695-.653 3.806c-.068.4.096.804.424 1.043.332.241.765.271 1.124.081L56.6 15.97l3.418 1.797a1.068 1.068 0 0 0 1.547-1.124l-.652-3.806 2.766-2.695a1.07 1.07 0 0 0 .268-1.094zm-4.926 2.654c-.25.244-.366.598-.306.944l.382 2.228-2-1.051a1.064 1.064 0 0 0-.995 0l-2.001 1.051.381-2.228a1.068 1.068 0 0 0-.306-.944l-1.62-1.579 2.238-.325c.348-.05.647-.269.803-.583l1-2.027L57.6 9.215c.155.314.455.533.803.583l2.237.325-1.618 1.58z" fill="#4D5AE5"/><path d="M52.267 41.044h-2.133v2.134h2.133v-2.134z" fill="#4D5AE5"/><path d="M52.267 45.311h-2.133v2.135h2.133V45.31z" fill="#4D5AE5"/><path d="M54.4 43.178h-2.133v2.133H54.4V43.18z" fill="#4D5AE5"/><path d="M50.134 43.178H48v2.133h2.134V43.18z" fill="#4D5AE5"/><path d="M44.8 52.778h-2.133v2.133H44.8V52.78z" fill="#4D5AE5"/><path d="M44.8 57.045h-2.133v2.133H44.8v-2.133z" fill="#4D5AE5"/><path d="M46.934 54.911H44.8v2.135h2.134V54.91z" fill="#4D5AE5"/><path d="M42.667 54.911h-2.134v2.135h2.134V54.91z" fill="#4D5AE5"/><path d="M32 48.511h-2.133v2.135H32V48.51z" fill="#4D5AE5"/><path d="M32 52.778h-2.133v2.133H32V52.78z" fill="#4D5AE5"/><path d="M34.133 50.645H32v2.133h2.133v-2.133z" fill="#4D5AE5"/><path d="M29.867 50.645h-2.134v2.133h2.134v-2.133z" fill="#4D5AE5"/><path d="M11.733 12.244H9.6v2.133h2.133v-2.133z" fill="#4D5AE5"/><path d="M11.733 16.51H9.6v2.134h2.133v-2.133z" fill="#4D5AE5"/><path d="M13.866 14.377h-2.133v2.134h2.133v-2.133z" fill="#4D5AE5"/><path d="M9.6 14.377H7.466v2.134H9.6v-2.133z" fill="#4D5AE5"/><path d="M49.43 28.319a3.548 3.548 0 0 0-2.377-1.41 3.553 3.553 0 0 0-2.68.704l-2.503 1.919h-.001l-3.797 2.835-2.715-1.082c4.842-2.172 8.227-7.016 8.227-12.64C43.585 11 37.34 4.78 29.663 4.78S15.74 11 15.74 18.645c0 2.771.83 5.348 2.24 7.517l-5.527-.048h-.01c-.017 0-.03.009-.047.01-.105.004-.209.025-.31.062-.026.01-.052.014-.077.026-.014.006-.026.007-.04.013l-6.465 3.193c-.001-.001-.002-.001-.002 0l-3.787 1.82a.82.82 0 0 0-.126.07 3.56 3.56 0 0 0-1.197 4.592 3.55 3.55 0 0 0 2.112 1.778 3.558 3.558 0 0 0 2.757-.257l2.776-1.476 4.528-2.338 2.714-.018L4.396 44.424s-.002 0-.003.002l-2.677 2.667a3.298 3.298 0 0 0-.98 2.355c0 .89.347 1.727.98 2.357.65.647 1.504.97 2.358.97a3.34 3.34 0 0 0 2.36-.97l2.629-2.618 3.482-2.6 1.801 1.795-3.523 3.508-.003.003-2.678 2.666a3.298 3.298 0 0 0-.98 2.354c0 .89.348 1.727.98 2.358.65.646 1.505.97 2.36.97a3.34 3.34 0 0 0 2.36-.97l2.679-2.667 4.286-4.266c0-.003 0-.004.002-.005l2.019-2-.008-.007c.012-.013.03-.017.043-.031L32.215 38.98l6.942.988a1.052 1.052 0 0 0 .525-.066c.035-.013.066-.03.1-.047.037-.02.078-.03.114-.054l6.427-4.266c.024-.016.036-.042.059-.059.025-.02.057-.028.08-.05l2.544-2.383a3.558 3.558 0 0 0 .424-4.723zm-45.17 7.22c-.346.186-.74.223-1.116.104a1.43 1.43 0 0 1-.425-2.52l2.627-1.264.632 1.849.265.775L4.26 35.54zm6.995-3.655-3.097 1.6-.51-1.493-.367-1.074 4.054-2-.08 2.967zm30.199-13.24c0 1.836-.438 3.568-1.198 5.118l-8.363-3.798a3.722 3.722 0 0 0-1.576-2.776l2.928-9.722c4.755 1.513 8.209 5.95 8.209 11.176zm-23.578 0c0-6.47 5.289-11.735 11.789-11.735.506 0 1 .043 1.49.105l-2.864 9.507c-.037 0-.074-.011-.113-.011a3.744 3.744 0 0 0-3.745 3.734 3.744 3.744 0 0 0 3.745 3.734c1.389 0 2.589-.767 3.236-1.89l7.725 3.51c-2.15 2.893-5.59 4.78-9.473 4.78-6.5 0-11.79-5.264-11.79-11.734zm11.913 1.6c-.001.881-.725 1.6-1.613 1.6a1.608 1.608 0 0 1-1.612-1.6c0-.883.723-1.6 1.612-1.6.888 0 1.612.717 1.612 1.6zM4.929 50.291a1.217 1.217 0 0 1-1.71.002 1.187 1.187 0 0 1 0-1.689l1.925-1.917 1.702 1.695-1.917 1.91zm6.427 7.467a1.216 1.216 0 0 1-1.71 0 1.188 1.188 0 0 1 0-1.688l1.926-1.918.805.801.898.894-1.919 1.91zm6.964-6.938-.003.002-3.53 3.52-.805-.801-.898-.894 3.527-3.512.004-.003c.08-.08.13-.176.18-.27.013-.028.04-.052.052-.08.033-.083.038-.171.05-.258.007-.049.028-.095.028-.145 0-.071-.025-.14-.04-.211-.013-.063-.013-.128-.037-.19-.04-.1-.11-.189-.183-.275-.02-.024-.028-.054-.05-.076l-.003-.005-3.213-3.2c-.034-.034-.078-.048-.116-.077a1.025 1.025 0 0 0-.173-.115.99.99 0 0 0-.187-.065 1.024 1.024 0 0 0-.206-.04 1.035 1.035 0 0 0-.19.01 1.068 1.068 0 0 0-.209.04.987.987 0 0 0-.188.09c-.04.022-.085.03-.122.057l-3.547 2.648-1.801-1.794 4.798-4.773 8.72 8.577-1.854 1.838zm13.638-14.034c-.03-.004-.06.008-.09.006a1.044 1.044 0 0 0-.23.014.983.983 0 0 0-.37.137c-.058.035-.113.074-.165.122-.026.022-.057.033-.08.058l-9.397 10.292-8.656-8.514 5.665-5.636a1.068 1.068 0 0 0-.76-1.822l-4.436.026.054-3.214 6.208.053a13.897 13.897 0 0 0 9.963 4.2c.875 0 1.728-.09 2.559-.244.08.064.159.129.26.17l4.818 1.92.305 1.516.357 1.77-6.006-.854zm8.083.357-.625-3.116 2.892-2.161.758 1.003 1.136 1.509-4.16 2.763zm7.508-5.662-1.676 1.57-1.862-2.473 1.663-1.274c.31-.24.701-.336 1.085-.286.387.054.728.256.96.568.434.584.36 1.398-.17 1.895z" fill="#2E2F42"/><path d="m27.204 37.088-4.286-4.267a1.066 1.066 0 0 0-1.505.001l-4.285 4.268a1.072 1.072 0 0 0 0 1.513l4.285 4.267a1.066 1.066 0 0 0 1.505 0l4.286-4.266a1.067 1.067 0 0 0 0-1.513zm-5.038 3.518-2.773-2.762 2.773-2.761 2.775 2.761-2.774 2.762z" fill="#2E2F42"/><path d="m34.328 10.142-.515 2.071c.142.035 3.476.904 3.476 4.298h2.132c0-4.034-3.331-5.93-5.094-6.368z" fill="#2E2F42"/><path d="M39.422 18.644H37.29v2.134h2.132v-2.134z" fill="#2E2F42"/></svg>