<svg width="64" height="64" viewBox="0 0 64 64" fill="none" xmlns="http://www.w3.org/2000/svg"><g clip-path="url(#clip0_297080_1787)"><path d="M62.593 30.603C62.59 13.698 48.883-.003 31.978 0 15.073.003 1.372 13.71 1.375 30.616a30.61 30.61 0 0 0 21.299 29.152c.12.038.247.058.373.057a1.35 1.35 0 0 0 .685-.187c.27-.16.472-.414.567-.713l7.729-24.5a3.826 3.826 0 1 0-1.68-7.27L20.136 16.942a1.275 1.275 0 0 0-1.803 1.804L28.54 28.964a3.752 3.752 0 0 0 1.073 4.618l-7.365 23.346C7.692 51.566.24 35.42 5.6 20.864 10.964 6.31 27.11-1.145 41.666 4.217 56.22 9.58 63.673 25.726 58.31 40.281a28.087 28.087 0 0 1-14.923 15.948l-.796-3.75a1.275 1.275 0 0 0-2.095-.686l-7.674 6.851a1.275 1.275 0 0 0 .463 2.168l9.797 3.128a1.275 1.275 0 0 0 1.638-1.48l-.782-3.677a30.51 30.51 0 0 0 18.657-28.177zm-30.609-1.276a1.276 1.276 0 1 1 0 2.552 1.276 1.276 0 0 1 0-2.553zm4.201 29.728 4.368-3.896 1.206 5.68-5.575-1.785z" fill="#2E2F42"/><path d="M30.71 6.37v2.55a1.275 1.275 0 1 0 2.55 0V6.37a1.276 1.276 0 0 0-2.55 0z" fill="#4D5AE5"/><path d="M7.752 29.327a1.275 1.275 0 0 0 0 2.55h2.55a1.275 1.275 0 1 0 0-2.55h-2.55z" fill="#4D5AE5"/><path d="M56.216 31.878a1.275 1.275 0 1 0 0-2.55h-2.55a1.276 1.276 0 0 0 0 2.55h2.55z" fill="#4D5AE5"/></g><defs><clipPath id="clip0_297080_1787"><rect width="64" height="64" fill="white"/></clipPath></defs></svg>