<svg width="64" height="64" viewBox="0 0 64 64" fill="none" xmlns="http://www.w3.org/2000/svg"><g clip-path="url(#clip0_297080_1794)"><path d="M29.851 29.93h2.133v9.594h-2.132V29.93z" fill="#4D5AE5"/><path d="M38.38 34.194h2.132v5.33H38.38v-5.33z" fill="#4D5AE5"/><path d="M21.322 37.392h2.132v2.132h-2.132v-2.132z" fill="#4D5AE5"/><path d="M14.925 36.326h2.133v3.198h-2.133v-3.198z" fill="#4D5AE5"/><path d="M3.198 56.582h51.174a3.198 3.198 0 0 0 3.198-3.198v-4.265a3.198 3.198 0 0 0-3.199-3.2h-1.065V19.335l6.056-5.736a3.216 3.216 0 1 0-1.492-1.526l-4.563 4.325v-2.46a3.198 3.198 0 0 0-3.198-3.198H7.463a3.198 3.198 0 0 0-3.199 3.198V45.92H3.198A3.198 3.198 0 0 0 0 49.12v4.264a3.198 3.198 0 0 0 3.198 3.198zm57.57-46.909a1.066 1.066 0 1 1 0 2.133 1.066 1.066 0 0 1 0-2.133zM6.397 13.938c0-.59.477-1.066 1.066-1.066h42.644c.589 0 1.066.477 1.066 1.066v4.477l-2.132 2.026v-4.37c0-.589-.476-1.066-1.065-1.066H9.595c-.589 0-1.066.477-1.066 1.066v26.653c-.001.588.476 1.066 1.065 1.066h38.38c.589-.001 1.066-.479 1.066-1.068V23.375l2.133-2.02V45.92H6.397V13.939zm9.595 13.86a3.198 3.198 0 1 0 2.214 5.496l3.706 1.86c.43.215.953.114 1.273-.246l7.877-8.863 7.744 5.803c.416.311.996.278 1.372-.079l6.73-6.376v16.262H10.662v-24.52H46.91v5.32L39.365 29.6l-7.81-5.854a1.067 1.067 0 0 0-1.435.144l-7.985 8.985-2.986-1.493c.021-.128.035-.257.04-.387a3.2 3.2 0 0 0-3.198-3.198zm1.066 3.197a1.066 1.066 0 1 1-2.133 0 1.066 1.066 0 0 1 2.133 0zm6.396 17.058h10.662v1.066c0 .588-.478 1.065-1.067 1.065h-8.53a1.066 1.066 0 0 1-1.066-1.066v-1.067zM2.132 49.12c0-.59.478-1.067 1.066-1.067h18.124v1.066a3.198 3.198 0 0 0 3.198 3.198h8.53a3.198 3.198 0 0 0 3.198-3.199v-1.067H54.37c.59 0 1.068.477 1.068 1.066v4.264c0 .588-.478 1.066-1.067 1.066H3.2a1.066 1.066 0 0 1-1.066-1.066v-4.265z" fill="#2E2F42"/></g><defs><clipPath id="clip0_297080_1794"><rect width="64" height="64" fill="white"/></clipPath></defs></svg>