<svg width="24" height="24" viewBox="0 0 24 24" fill="none" xmlns="http://www.w3.org/2000/svg"><g clip-path="url(#clip0_660329_108)"><path d="M24 4.558c-.892.392-1.844.651-2.835.777a4.893 4.893 0 0 0 2.164-2.72c-.951.568-2.001.968-3.12 1.192a4.92 4.92 0 0 0-8.51 3.365c-.001.39.032.765.113 1.122-4.09-.2-7.71-2.16-10.142-5.147A4.954 4.954 0 0 0 1 5.634c0 1.704.877 3.215 2.185 4.09A4.86 4.86 0 0 1 .96 9.116v.054a4.943 4.943 0 0 0 3.942 4.835c-.4.11-.837.162-1.29.162a4.35 4.35 0 0 1-.931-.083c.638 1.948 2.447 3.38 4.598 3.427a9.886 9.886 0 0 1-6.1 2.1c-.404 0-.79-.019-1.178-.068a13.852 13.852 0 0 0 7.548 2.208c9.054 0 14.004-7.5 14.004-14 0-.219-.007-.429-.018-.637A9.816 9.816 0 0 0 24 4.558z" fill="#F4F4FD"/></g><defs><clipPath id="clip0_660329_108"><rect width="24" height="24" fill="white"/></clipPath></defs></svg>