<svg width="24" height="24" viewBox="0 0 24 24" fill="none" xmlns="http://www.w3.org/2000/svg"><g clip-path="url(#clip0_660329_17)"><path d="M23.976 7.056c-.056-1.275-.262-2.152-.557-2.912a5.857 5.857 0 0 0-1.39-2.128A5.905 5.905 0 0 0 19.908.633C19.143.338 18.27.13 16.996.075 15.71.015 15.303 0 12.045 0 8.786 0 8.378.014 7.098.07 5.823.127 4.946.333 4.187.628a5.856 5.856 0 0 0-2.129 1.388A5.91 5.91 0 0 0 .675 4.14C.38 4.904.173 5.776.117 7.05.057 8.337.042 8.745.042 12.003c0 3.259.014 3.667.07 4.947.057 1.274.263 2.15.559 2.91a5.92 5.92 0 0 0 1.388 2.129c.6.608 1.327 1.082 2.124 1.382.764.295 1.636.501 2.912.558 1.28.056 1.687.07 4.946.07 3.258 0 3.666-.014 4.946-.07 1.275-.057 2.152-.263 2.912-.558a6.14 6.14 0 0 0 3.511-3.512c.295-.764.5-1.636.557-2.911.056-1.281.07-1.69.07-4.948s-.004-3.666-.06-4.946zm-2.16 9.799c-.052 1.172-.25 1.805-.413 2.227a3.98 3.98 0 0 1-2.28 2.278c-.42.165-1.058.361-2.226.413-1.266.056-1.645.07-4.848.07s-3.587-.014-4.849-.07c-1.17-.052-1.804-.248-2.226-.413a3.693 3.693 0 0 1-1.378-.895 3.73 3.73 0 0 1-.896-1.378c-.164-.422-.36-1.06-.412-2.227-.056-1.266-.07-1.646-.07-4.848 0-3.203.014-3.587.07-4.848.051-1.172.248-1.805.412-2.227.193-.52.498-.994.9-1.379.39-.398.859-.703 1.38-.895.421-.164 1.059-.36 2.226-.413 1.266-.056 1.646-.07 4.848-.07 3.207 0 3.587.014 4.848.07 1.172.052 1.805.25 2.227.413.52.192.993.497 1.377.895.399.39.703.858.896 1.379.164.422.36 1.06.412 2.227.056 1.266.07 1.645.07 4.848 0 3.202-.014 3.577-.07 4.843z" fill="#F4F4FD"/><path d="M12.045 5.837a6.167 6.167 0 0 0-6.166 6.165 6.167 6.167 0 0 0 6.165 6.166 6.167 6.167 0 0 0 6.165-6.166 6.167 6.167 0 0 0-6.165-6.165zm0 10.165a4 4 0 1 1 0-8 4 4 0 0 1 0 8z" fill="#F4F4FD"/><path d="M19.893 5.593a1.44 1.44 0 1 1-2.879 0 1.44 1.44 0 0 1 2.88 0z" fill="#F4F4FD"/></g><defs><clipPath id="clip0_660329_17"><rect width="24" height="24" fill="white"/></clipPath></defs></svg>