<svg width="24" height="24" viewBox="0 0 24 24" fill="none" xmlns="http://www.w3.org/2000/svg"><g clip-path="url(#clip0_660329_152)"><path d="M23.994 24H24v-8.803c0-4.306-.927-7.623-5.96-7.623-2.42 0-4.045 1.328-4.708 2.587h-.07V7.977H8.49V24h4.97v-7.935c0-2.089.395-4.109 2.982-4.109 2.55 0 2.587 2.384 2.587 4.243V24h4.964z" fill="#F4F4FD"/><path d="M.396 7.977h4.976V24H.396V7.977z" fill="#F4F4FD"/><path d="M2.882 0A2.883 2.883 0 0 0 0 2.882c0 1.59 1.29 2.91 2.882 2.91 1.59 0 2.882-1.32 2.882-2.91A2.884 2.884 0 0 0 2.882 0z" fill="#F4F4FD"/></g><defs><clipPath id="clip0_660329_152"><rect width="24" height="24" fill="white"/></clipPath></defs></svg>